<svg xmlns="http://www.w3.org/2000/svg" fill="none" viewBox="0 0 21 20"><path fill="#959595" d="M19.9178 14.6414c-.0879-.0533-2.1822-1.3114-4.8002-1.3114-.2696 0-.5371.0107-.8017.0269.6144-.3337 1.2333-.7202 1.806-1.1677 2.7652-2.1603 3.9273-5.66999 3.9753-5.81821.0443-.13719.015-.28787-.0781-.39821-.0936-.10952-.2352-.16041-.3797-.1429-.1196.0179-2.9549.46376-5.5501 2.82399-.7013.63801-1.3362 1.34653-1.8941 2.04253.2474-.9657.4224-2.0489.4224-3.20327 0-3.99291-2.0638-7.18295-2.1517-7.3165-.1538-.23453-.54279-.23453-.69658 0-.08793.13355-2.15171 3.32359-2.15171 7.3165 0 1.15437.175 2.23757.42242 3.20327-.55793-.696-1.19281-1.40452-1.89417-2.04249C3.55063 6.29364.71537 5.84782.59576 5.82992c-.14199-.01751-.28562.03338-.37965.1429-.09316.11034-.12246.26098-.07812.39821.048.14818 1.21011 3.65787 3.97541 5.81817.57266.4475 1.1916.834 1.80593 1.1677-.26456-.0162-.5321-.0269-.80167-.0269-2.618 0-4.71229 1.2581-4.80018 1.3114a.4179.4179 0 0 0-.1998.3575c.00039.1462.0773.2814.20222.3563.08907.0533 2.21187 1.3102 4.79772 1.3102.57679 0 1.14523-.0829 1.68527-.2088-.88391 1.0417-.8543 2.2513-.85153 2.3113.00571.1283.07001.2472.17458.3217a.41609.41609 0 0 0 .24171.0773.42349.42349 0 0 0 .11883-.0171c.06266-.0187 1.55355-.4735 2.69612-1.7947.20485-.2369.36996-.4716.5184-.702v2.9307c0 .2305.18637.4169.4167.4169.2303 0 .4167-.1864.4167-.4169v-2.9307c.1484.2305.3135.4652.5184.702 1.1425 1.3212 2.6334 1.776 2.6961 1.7947.039.0114.0789.0171.1188.0171.0859 0 .1705-.0265.2417-.0773.1046-.0745.1689-.1934.1746-.3217.0027-.06.0327-1.2728-.8546-2.3152.5429.1281 1.1131.2127 1.6883.2127 2.618 0 4.7123-1.2581 4.8002-1.3114a.4176.4176 0 0 0 .1998-.3563.41783.41783 0 0 0-.1999-.3563ZM14.65 9.27113c1.6366-1.48896 3.4066-2.16199 4.3754-2.44087-.4748 1.10825-1.5714 3.26044-3.4163 4.70174-1.5279 1.1938-3.4627 1.9605-4.6097 2.346.6807-1.1278 1.9942-3.1 3.6506-4.60687ZM4.6261 11.532c-1.84082-1.438-2.93944-3.59184-3.41554-4.70131.96883.27888 2.73843.95191 4.3746 2.44048C7.2396 10.776 8.55389 12.7495 9.23545 13.8777c-1.14706-.3856-3.08147-1.1523-4.60935-2.3457Zm.49152 4.2995c-1.50554 0-2.86862-.4849-3.65803-.8362.78163-.3502 2.13257-.8315 3.65803-.8315 1.51081 0 3.01514.3107 3.94244.5481-.90128.4703-2.42143 1.1196-3.94244 1.1196Zm3.43506.978c-.55257.6384-1.21175 1.046-1.68335 1.2805.11434-.4471.38086-1.0447.99812-1.5081.62582-.4694 1.13281-.8196 1.51855-1.0724-.17375.3843-.43742.842-.83332 1.3Zm1.63812-3.2072c-.0245.0415-.0506.085-.0732.1239-.0226-.0388-.0487-.0824-.0732-.1239-.59016-1.1372-1.59347-3.4541-1.59347-6.10917 0-2.76169 1.09007-5.17121 1.66667-6.25301.5766 1.0818 1.6667 3.49132 1.6667 6.25301 0 2.65507-1.0033 4.97197-1.5935 6.10917Zm1.4918 3.2072c-.3931-.4544-.6564-.9124-.8305-1.298.3857.2525.8915.6022 1.5157 1.0704.6205.4658.8866 1.0635 1.0001 1.5109-.4704-.2332-1.1287-.64-1.6853-1.2833Zm3.435-.978c-1.5011 0-3.0286-.6506-3.9372-1.1217.9269-.2365 2.4268-.546 3.9372-.546 1.523 0 2.8792.4837 3.6621.8343-.7813.3506-2.1342.8334-3.6621.8334Z"/></svg>